# xmcd
#
# Track frame offsets: 
#        150
#        18361
#        37948
#        57551
#        77224
#        95196
#        102749
#        118849
#        137191
#        154893
#        177056
#
# Disc length: 2747 seconds
#
# Revision: 0
# Processed by: cddbd v1.5.2PL0 Copyright (c) Steve Scherf et al.
# Submitted via: ExactAudioCopy v1.3
#
DISCID=990ab90b
DTITLE=Angel Forrest - Hell Bent With Grace
DYEAR=2019
DGENRE=Blues Rock
TTITLE0=Menie De Monster
TTITLE1=Get It On
TTITLE2=Bea
TTITLE3=Ain't No Doubt
TTITLE4=Grace
TTITLE5=Indian Moon
TTITLE6=The Blame Game
TTITLE7=Looking Glass
TTITLE8=Mother Lover
TTITLE9=Mariegold
TTITLE10=Bane Lorraine
EXTD=
EXTT0=
EXTT1=
EXTT2=
EXTT3=
EXTT4=
EXTT5=
EXTT6=
EXTT7=
EXTT8=
EXTT9=
EXTT10=
PLAYORDER=
